<?xml version="1.0" encoding="utf-8"?>
<!-- Generator: Adobe Illustrator 19.1.0, SVG Export Plug-In . SVG Version: 6.00 Build 0)  -->
<svg version="1.1" id="Layer_1" xmlns="http://www.w3.org/2000/svg" xmlns:xlink="http://www.w3.org/1999/xlink" x="0px" y="0px"
	 viewBox="-289 412.9 16 16" style="enable-background:new -289 412.9 16 16;" xml:space="preserve">
<style type="text/css">
	.st0{fill:#FFFFFF;}
</style>
<g>
	<path class="st0" d="M-280.2,416.6c-0.2,0.2-0.5,0.4-0.7,0.6c-0.3,0.4-0.7,0.5-1.2,0.5c-0.7,0-1.4,0-2.1,0c0,2.1,0,4.2,0,6.3
		c2.1,0,4.2,0,6.3,0c0-0.1,0-0.2,0-0.2c0-0.8,0-1.5,0-2.3c0-0.2,0-0.3,0.2-0.4c0.3-0.3,0.6-0.6,0.9-0.9c0,0,0.1-0.1,0.1-0.1
		c0,0.1,0,0.2,0,0.2c0,1.3,0,2.6,0,3.9c0,0.6-0.3,0.9-0.9,0.9c-2.3,0-4.5,0-6.8,0c-0.6,0-0.9-0.3-0.9-0.9c0-2.3,0-4.5,0-6.8
		c0-0.6,0.3-0.9,0.9-0.9c1.3,0,2.6,0,4,0C-280.4,416.6-280.3,416.6-280.2,416.6C-280.3,416.6-280.2,416.6-280.2,416.6z"/>
	<path class="st0" d="M-277.7,419.1c-1.2,1.2-2.3,2.3-3.5,3.5c-0.2-0.3-0.5-0.6-0.7-0.8c-0.3-0.3-0.6-0.5-0.8-0.7
		c1.1-1.1,2.3-2.3,3.5-3.5C-278.5,417.9-278,418.4-277.7,419.1z"/>
	<path class="st0" d="M-277.2,418.7c-0.4-0.7-0.9-1.2-1.6-1.6c0.2-0.2,0.3-0.3,0.5-0.5c0,0,0.1-0.1,0.1,0c1,0.1,1.4,0.5,1.5,1.5
		c0,0,0,0.1-0.1,0.1C-276.9,418.3-277,418.5-277.2,418.7z"/>
	<path class="st0" d="M-283.4,423.2c0-0.5,0-1,0-1.5c0-0.2,0.2-0.3,0.3-0.2c0.6,0.3,1,0.8,1.3,1.3c0.1,0.2,0,0.3-0.2,0.3
		C-282.3,423.3-282.8,423.2-283.4,423.2z"/>
</g>
</svg>
